Coordinates
version=1
nRows=24
nColumns=19
inDegrees=yes

Units are S.I. units (second, meters, Newtons, ...)
If the header above contains a line with 'inDegrees', this indicates whether rotational values are in degrees (yes) or radians (no).

endheader
time	pelvis_tilt	pelvis_list	pelvis_rotation	pelvis_tx	pelvis_ty	pelvis_tz	hip_flexion_r	hip_adduction_r	hip_rotation_r	knee_angle_r	knee_angle_r_beta	ankle_angle_r	hip_flexion_l	hip_adduction_l	hip_rotation_l	knee_angle_l	knee_angle_l_beta	ankle_angle_l
     15.22666667	     -2.72123976	     -7.79128081	     -5.64494667	      2.17097800	      1.00990408	      1.05369335	     22.16743238	     11.39329046	     -2.22515047	     14.47964916	      0.25271755	      1.67581809	    -10.24904227	    -13.92298449	    -21.65809494	     61.80813011	      1.07875537	    -13.01021396
     15.23333333	     -1.89426722	     -8.36672523	     -6.08845075	      2.17002523	      1.00648470	      1.05466637	     21.51077214	     11.94179387	     -2.67554284	     17.27626312	      0.30152767	      2.38506960	     -9.68731628	    -15.09732302	    -21.94751385	     65.22421824	      1.13837736	    -12.48903515
     15.24000000	     -1.34885991	     -8.81220071	     -6.52244680	      2.16877665	      1.00262748	      1.05566644	     21.27799651	     12.34685289	     -3.02020638	     20.41350552	      0.35628288	      3.33597087	     -8.63708008	    -16.12270659	    -21.94909053	     68.59857680	      1.19727103	    -11.98220544
     15.24666667	     -1.66265279	     -8.86090611	     -6.91252008	      2.16717515	      0.99772626	      1.05665843	     22.14872614	     12.37035522	     -3.29705372	     23.91309759	      0.41736229	      4.67972370	     -6.28928014	    -16.77694657	    -21.41482654	     72.04676527	      1.25745327	    -11.38930996
     15.25333333	     -1.25842700	     -9.09346281	     -7.11311291	      2.16541265	      0.99375626	      1.05737382	     22.04186823	     12.50274781	     -3.41045364	     27.08642889	      0.47274737	      6.27795964	     -4.67824334	    -17.52780584	    -20.81034691	     75.20050541	      1.31249642	    -10.75818021
     15.26000000	     -0.28965735	     -9.48293275	     -7.21851329	      2.16352025	      0.99063732	      1.05779389	     21.10872715	     12.76213789	     -3.28956448	     29.91642577	      0.52214013	      8.17132877	     -3.66772277	    -18.35265362	    -20.22516928	     78.06191654	      1.36243746	    -10.08817557
     15.26666667	     -0.28848119	     -9.42157640	     -7.14771505	      2.16125299	      0.98680233	      1.05805370	     21.27157959	     12.57507102	     -3.31380344	     32.74624461	      0.57152979	     10.11604142	     -1.10203031	    -18.59803551	    -18.82032847	     80.91798776	      1.41228531	     -9.36217609
     15.27333333	      0.59376243	     -9.62342058	     -7.08694561	      2.15899764	      0.98439466	      1.05813043	     20.10744150	     12.66190843	     -2.97560318	     34.96647672	      0.61028015	     12.25496185	      0.32880379	    -19.02942574	    -17.78475186	     83.33503790	      1.45447079	     -8.58911622
     15.28000000	      0.71133110	     -9.49274886	     -6.66771242	      2.15657824	      0.98174130	      1.05775253	     19.67561360	     12.33521362	     -3.01230338	     36.89670748	      0.64396903	     14.32220719	      3.08184051	    -18.91883996	    -15.88823983	     85.65233198	      1.49491521	     -7.86595743
     15.28666667	      1.46700475	     -9.51122999	     -6.59610559	      2.15423519	      0.98036638	      1.05769079	     18.17570010	     12.32199140	     -2.36186409	     38.26329335	      0.66782045	     16.45430021	      4.76867566	    -18.98213073	    -14.76626415	     87.46912489	      1.52662422	     -7.09104718
     15.29333333	      1.27291021	     -9.15230934	     -5.93887577	      2.15190587	      0.97863083	      1.05686805	     17.60787501	     11.72459866	     -2.54368459	     39.29618643	      0.68584784	     18.32123415	      8.05462266	    -18.30784396	    -12.52029413	     89.18027101	      1.55648936	     -6.35060372
     15.30000000	      1.40904282	     -8.82255330	     -5.45890341	      2.14980536	      0.97791559	      1.05619523	     16.34451451	     11.24222970	     -2.36260544	     39.79882741	      0.69462058	     20.08384964	     10.70144074	    -17.65680706	    -10.80893787	     90.42147158	      1.57815239	     -5.65785818
     15.30666667	      1.53314119	     -8.38993106	     -4.94446746	      2.14806313	      0.97785677	      1.05553133	     14.82096979	     10.66898132	     -2.15669883	     39.82303312	      0.69504305	     21.61914954	     13.24339161	    -16.80028180	     -9.20490801	     91.25314020	      1.59266775	     -5.01178532
     15.31333333	      1.63959451	     -7.92364733	     -4.86716204	      2.14667237	      0.97845519	      1.05543107	     13.03292225	     10.26241927	     -1.27701334	     39.42937840	      0.68817248	     22.90703250	     15.41676907	    -16.09461884	     -8.34796968	     91.63271457	      1.59929257	     -4.35420553
     15.32000000	      1.42675712	     -7.19666543	     -3.99480516	      2.14568278	      0.97924402	      1.05442965	     11.47142448	      9.26488569	     -1.66720944	     38.70896573	      0.67559890	     23.89092197	     18.19672697	    -14.68290502	     -6.66078216	     91.72930457	      1.60097839	     -3.86410906
     15.32666667	      1.09921434	     -6.48172586	     -3.61027282	      2.14515950	      0.98048193	      1.05413387	      9.80274378	      8.50762717	     -1.34712451	     37.66350042	      0.65735209	     24.53645597	     20.65771858	    -13.55756297	     -5.78940036	     91.39888614	      1.59521150	     -3.38808261
     15.33333333	      0.76304700	     -5.70554348	     -3.27972127	      2.14512002	      0.98225520	      1.05396832	      7.96627424	      7.70001321	     -0.99471539	     36.30843427	      0.63370172	     24.77447981	     22.87117291	    -12.44134896	     -5.23273979	     90.66103421	      1.58233355	     -2.93607343
     15.34000000	      0.34210853	     -4.89769068	     -3.11200148	      2.14553933	      0.98439317	      1.05404243	      6.10450161	      6.89144658	     -0.50336699	     34.75599752	      0.60660659	     24.63954525	     24.90040051	    -11.43715269	     -5.07211580	     89.54930810	      1.56293027	     -2.53812977
     15.34666667	      0.51590304	     -4.06112016	     -2.80044322	      2.14639814	      0.98767121	      1.05397163	      3.41361192	      5.97839730	     -0.24716226	     32.81485289	      0.57272723	     24.04689077	     26.03942691	    -10.40074226	     -5.07718610	     88.00454522	      1.53596907	     -2.10112180
     15.35333333	     -0.17022268	     -3.21999403	     -2.84671848	      2.14753986	      0.99030314	      1.05426630	      1.71934246	      5.14127934	      0.33189641	     30.98541626	      0.54079753	     22.99995243	     27.89876297	     -9.57120627	     -5.45752053	     86.23157512	      1.50502491	     -1.72927835
     15.36000000	      0.53044782	     -2.33706648	     -2.80733276	      2.14917133	      0.99488957	      1.05448636	     -1.71186429	      4.14087223	      0.73342172	     28.63482400	      0.49977196	     21.48369952	     27.90966825	     -8.82150751	     -6.25408992	     83.97020403	      1.46555653	     -1.27204927
     15.36666667	      0.59916539	     -1.49971795	     -2.87506961	      2.15101882	      0.99895735	      1.05463602	     -4.36560737	      3.18105184	      1.08310378	     26.39254382	      0.46063679	     19.47015530	     28.47615379	     -8.14024748	     -7.11794913	     81.50888280	      1.42259837	     -0.82375636
     15.37333333	      0.52822617	     -0.71418200	     -3.03518808	      2.15307810	      1.00305987	      1.05473938	     -6.82883936	      2.25203396	      1.44099190	     24.13532882	      0.42124095	     17.09773796	     29.02839854	     -7.58063277	     -8.15417657	     78.80157603	      1.37534696	     -0.49117458
     15.38000000	      0.80630352	      0.03538806	     -3.35323973	      2.15526048	      1.00770328	      1.05485493	     -9.60136137	      1.26857872	      1.79430262	     21.87112407	      0.38172313	     14.13715846	     28.96488048	     -7.14672371	     -9.49580063	     75.79551033	      1.32288121	      0.02889318
